<?xml version="1.0" encoding="UTF-8"?>
<!DOCTYPE svg PUBLIC "-//W3C//DTD SVG 1.1//EN" "http://www.w3.org/Graphics/SVG/1.1/DTD/svg11.dtd">
<!-- Creator: CorelDRAW -->
<svg xmlns="http://www.w3.org/2000/svg" xml:space="preserve" width="1.70666in" height="1.70666in" version="1.1" style="shape-rendering:geometricPrecision; text-rendering:geometricPrecision; image-rendering:optimizeQuality; fill-rule:evenodd; clip-rule:evenodd"
viewBox="0 0 1706.66 1706.66"
 xmlns:xlink="http://www.w3.org/1999/xlink"
 xmlns:xodm="http://www.corel.com/coreldraw/odm/2003">
 <defs>
  <style type="text/css">
   <![CDATA[
    .fil0 {fill:black}
   ]]>
  </style>
 </defs>
 <g id="Layer_x0020_1">
  <metadata id="CorelCorpID_0Corel-Layer"/>
  <path class="fil0" d="M762.92 1522.14c-5.14,0 -10.28,-1.94 -14.17,-5.83l-529.31 -529.3c-7.77,-7.77 -7.78,-20.56 0,-28.33l638.33 -638.33c3.47,-3.47 7.92,-5.56 12.78,-5.83l318.75 -21.67 239.31 -6.39c11.54,-0.3 20.85,9.01 20.56,20.56l-6.39 238.47 -21.67 319.58c-0.28,4.86 -2.36,9.31 -5.83,12.78l-638.33 638.47c-3.89,3.89 -9.03,5.83 -14.03,5.83zm-501.11 -549.3l500.97 500.97 618.89 -618.89 21.11 -311.24 5.69 -216.67 -217.5 5.83 -310.42 21.11 -618.74 618.88z"/>
  <path class="fil0" d="M1429.03 734.23c-159.27,0 -286.98,-135.68 -277.08,-295 1.64,-26.35 41.63,-23.83 40,2.5 -13.51,217.99 250.95,337.24 405.28,182.92 149.19,-149.19 43.33,-405.69 -168.06,-405.69 -79.53,0 -152.3,39.01 -196.8,104.3 -14.86,21.8 -47.89,-0.76 -33.06,-22.5 154.4,-226.37 507.35,-115.96 507.35,155.56 0,153.39 -124.37,277.91 -277.63,277.91z"/>
  <path class="fil0" d="M768.2 1292.14c-11.11,0 -20,-9.03 -20,-20l0 -609.3c0,-26.36 40,-26.36 40,0l0 609.3c0,10.97 -8.89,20 -20,20z"/>
  <path class="fil0" d="M556.26 1067.56c-55.14,0 -100,-44.86 -100,-100 0,-55.14 44.86,-100 100,-100 55.14,0 100,44.86 100,100 0,55 -44.86,100 -100,100zm0 -160.14c-78.96,0 -78.96,120 0,120 78.96,0 78.96,-120 0,-120z"/>
  <path class="fil0" d="M980.14 1067.56c-55.14,0 -100,-44.86 -100,-100 0,-55.14 44.86,-100 100,-100 55.14,0 100,44.86 100,100 0,55 -44.86,100 -100,100zm0 -160.14c-78.96,0 -78.96,120 0,120 78.96,0 78.96,-120 0,-120z"/>
  <path class="fil0" d="M1202.36 682.98c-7.89,0 -82.21,-30.54 -95.28,-35.7 -4.86,-1.94 -8.89,-5.69 -10.97,-10.56l-36.53 -82.92c-2.22,-5.14 -2.22,-10.97 0,-16.11l36.53 -82.92c2.08,-4.86 6.11,-8.61 10.97,-10.56l88.06 -34.31c4.72,-1.81 9.86,-1.81 14.58,0l88.06 34.31c5,1.94 8.89,5.69 11.11,10.56l36.53 82.92c2.22,5.14 2.22,10.97 0,16.11l-36.53 82.92c-2.08,4.86 -6.11,8.61 -11.11,10.56 -13.57,5.28 -87.11,35.7 -95.42,35.7zm-73.06 -69.86l73.06 28.47 73.06 -28.47 29.58 -67.22 -29.58 -67.22 -73.06 -28.47 -73.06 28.47 -29.58 67.22 29.58 67.22z"/>
  <path class="fil0" d="M549.31 1527.84c-5.14,0 -10.28,-1.94 -14.17,-5.83l-529.31 -529.3c-7.78,-7.78 -7.78,-20.42 0,-28.33l638.33 -638.33c3.47,-3.47 7.92,-5.56 12.78,-5.83l318.74 -21.67 214.86 -5.69c25.46,0 26.85,38.18 1.39,39.86l-311.25 21.11 -618.89 619.02 411.25 411.25c7.78,7.78 7.78,20.42 0,28.33l-109.58 109.58c-3.89,3.89 -9.03,5.83 -14.17,5.83zm-500.97 -549.31l500.97 500.97 81.25 -81.39 -411.11 -411.11c-7.77,-7.77 -7.78,-20.56 0,-28.33l610.14 -610.13 -162.36 11.11 -618.89 618.88z"/>
 </g>
</svg>
