<?xml version="1.0" encoding="UTF-8"?>
<!DOCTYPE svg PUBLIC "-//W3C//DTD SVG 1.1//EN" "http://www.w3.org/Graphics/SVG/1.1/DTD/svg11.dtd">
<!-- Creator: CorelDRAW -->
<svg xmlns="http://www.w3.org/2000/svg" xml:space="preserve" width="512px" height="512px" version="1.1" style="shape-rendering:geometricPrecision; text-rendering:geometricPrecision; image-rendering:optimizeQuality; fill-rule:evenodd; clip-rule:evenodd"
viewBox="0 0 512 512"
 xmlns:xlink="http://www.w3.org/1999/xlink">
 <defs>
  <style type="text/css">
   <![CDATA[
    .fil2 {fill:#1D81CE}
    .fil0 {fill:#4D4D4D}
    .fil5 {fill:#7ED63F}
    .fil3 {fill:#99A4AC}
    .fil1 {fill:#F3A766}
    .fil4 {fill:#FF1100}
   ]]>
  </style>
 </defs>
 <g id="Layer_x0020_1">
  <metadata id="CorelCorpID_0Corel-Layer"/>
  <path class="fil0" d="M217 406l-91 -90c-15,-16 -15,-41 0,-56 16,-15 41,-15 56,0l35 35 0 -129c-20,-12 -31,-35 -31,-58 0,-38 32,-70 71,-70 40,0 70,38 70,70 0,33 -15,49 -31,59l0 82 60 0c39,0 70,31 70,70l0 148c0,4 -4,7 -8,7l-194 0c-4,0 -7,-3 -7,-7l0 -61zm215 -297l-26 -26c-7,-7 4,-17 11,-10l25 25 25 -25c7,-7 18,3 11,10l-26 25 26 26c7,7 -4,17 -11,10l-25 -25 -26 25c-6,7 -17,-3 -10,-10l26 -25zm-336 -26c7,-7 17,3 10,10l-41 42c-3,2 -7,2 -10,0l-20 -20c-7,-7 4,-18 10,-11l15 15 36 -36zm346 96c-39,0 -71,-32 -71,-70 0,-39 32,-71 71,-71 38,0 70,32 70,71 0,38 -31,70 -70,70zm0 -127c-31,0 -56,25 -56,56 0,31 25,56 56,56 30,0 55,-25 55,-56 0,-31 -24,-56 -55,-56zm-371 127c-39,0 -71,-32 -71,-70 0,-39 32,-71 71,-71 39,0 70,32 70,71 0,38 -31,70 -70,70zm0 -127c-31,0 -56,25 -56,57 0,31 25,56 56,56 31,0 56,-25 56,-56 0,-31 -25,-57 -56,-57zm146 96l0 -7c0,-22 17,-40 39,-40 22,0 40,18 40,40l0 8c10,-9 16,-21 16,-41 0,-25 -25,-56 -56,-56 -49,0 -74,60 -39,96zm14 164c0,7 -8,10 -13,5l-46 -47c-15,-15 -42,-5 -42,18 0,7 2,13 7,17l90 91 184 0 0 -77c0,-30 -25,-55 -55,-55l-68 0c-4,0 -7,-4 -7,-8l0 -115c0,-14 -11,-25 -25,-25 -14,0 -25,11 -25,25 0,57 0,114 0,171zm0 148l180 0 0 -49 -180 0 0 49z"/>
  <path class="fil1" d="M137 305l90 91 184 0 0 -77c0,-30 -25,-55 -55,-55l-68 0c-4,0 -7,-4 -7,-8l0 -115c0,-14 -11,-25 -25,-25 -14,0 -25,11 -25,25l0 171c0,7 -8,10 -13,5l-46 -47c-15,-15 -42,-5 -42,18 0,7 2,13 7,17z"/>
  <polygon class="fil2" points="411,411 231,411 231,460 411,460 "/>
  <path class="fil3" d="M256 101c22,0 40,18 40,40l0 8c10,-9 16,-21 16,-41 0,-25 -25,-56 -56,-56 -49,0 -74,60 -39,96l0 -7c0,-22 17,-40 39,-40z"/>
  <path class="fil4" d="M478 83l-26 25 26 26c7,7 -4,17 -11,10l-25 -25 -26 25c-6,7 -17,-3 -10,-10l26 -25 -26 -26c-7,-7 4,-17 11,-10l25 25 25 -25c7,-7 18,3 11,10zm-36 -31c-31,0 -56,25 -56,56 0,31 25,56 56,56 30,0 55,-25 55,-56 0,-31 -24,-56 -55,-56z"/>
  <path class="fil5" d="M71 165c31,0 56,-25 56,-56 0,-31 -25,-57 -56,-57 -31,0 -56,25 -56,57 0,31 25,56 56,56zm35 -72l-41 42c-3,2 -7,2 -10,0l-20 -20c-7,-7 4,-18 10,-11l15 15 36 -36c7,-7 17,3 10,10z"/>
 </g>
</svg>
