<?xml version="1.0" encoding="UTF-8"?>
<!DOCTYPE svg PUBLIC "-//W3C//DTD SVG 1.1//EN" "http://www.w3.org/Graphics/SVG/1.1/DTD/svg11.dtd">
<!-- Creator: CorelDRAW -->
<svg xmlns="http://www.w3.org/2000/svg" xml:space="preserve" width="512px" height="512px" version="1.1" style="shape-rendering:geometricPrecision; text-rendering:geometricPrecision; image-rendering:optimizeQuality; fill-rule:evenodd; clip-rule:evenodd"
viewBox="0 0 512 512"
 xmlns:xlink="http://www.w3.org/1999/xlink">
 <defs>
  <style type="text/css">
   <![CDATA[
    .fil0 {fill:#4D4D4D}
    .fil4 {fill:#7ED63F}
    .fil3 {fill:#99A4AC}
    .fil1 {fill:#D9F2F2}
    .fil2 {fill:#FFE600}
   ]]>
  </style>
 </defs>
 <g id="Layer_x0020_1">
  <metadata id="CorelCorpID_0Corel-Layer"/>
  <g>
   <path class="fil0" d="M453 357c-4,0 -7,-3 -7,-7l0 -215c0,-9 14,-9 14,0l0 215c0,4 -3,7 -7,7zm-95 155l-321 0c-12,0 -22,-10 -22,-22l0 -468c0,-12 10,-22 22,-22 25,0 257,-1 260,0 3,1 80,69 81,70 2,2 2,4 2,6l0 414c0,12 -10,22 -22,22zm-70 -498l-251 0c-5,0 -8,4 -8,8l0 468c0,4 3,8 8,8l321 0c4,0 8,-4 8,-8l0 -408 -71 0c-4,0 -7,-3 -7,-7l0 -61zm14 54l52 0 -52 -46 0 46zm25 38l-259 0c-9,0 -9,-14 0,-14l259 0c9,0 9,14 0,14zm-46 28l-213 0c-9,0 -9,-14 0,-14l213 0c9,0 9,14 0,14zm46 42l-259 0c-9,0 -9,-14 0,-14l259 0c9,0 9,14 0,14zm-46 27l-213 0c-9,0 -9,-14 0,-14l213 0c9,0 9,14 0,14zm46 42l-259 0c-9,0 -9,-14 0,-14l259 0c9,0 9,14 0,14zm-46 27l-213 0c-9,0 -9,-14 0,-14l213 0c9,0 9,14 0,14zm46 42l-259 0c-9,0 -9,-14 0,-14l259 0c9,0 9,14 0,14zm-46 28l-213 0c-9,0 -9,-14 0,-14l213 0c9,0 9,14 0,14zm-170 116c-17,-5 -21,-29 -9,-29 4,0 7,3 7,7 0,5 4,9 9,9l0 0c12,0 12,-18 0,-18 -26,0 -32,-38 -7,-46 0,-4 -1,-12 7,-12 8,0 7,8 7,12 17,5 21,29 9,29 -4,0 -7,-3 -7,-7 0,-12 -18,-12 -18,0 0,5 4,10 9,10 27,0 31,37 7,45 0,4 1,12 -7,12 -8,0 -7,-8 -7,-12zm7 31c-38,0 -69,-31 -69,-69 0,-38 31,-69 69,-69 38,0 69,31 69,69 0,38 -31,69 -69,69zm0 -124c-30,0 -55,25 -55,55 0,30 25,55 55,55 30,0 55,-25 55,-55 0,-30 -25,-55 -55,-55zm360 83l-51 0 26 43 25 -43zm-69 -3l-1 -4 0 -416c0,-14 12,-25 26,-25l38 0c14,0 25,11 25,25l0 416 -1 4 -37 63c-3,5 -9,5 -12,1l-38 -64zm13 -408l61 0c0,-27 1,-23 -49,-23 -6,0 -12,5 -12,11l0 12zm0 397l61 0 0 -383 -61 0 0 383zm-14 -390l0 0 0 0z"/>
  </g>
  <path class="fil1" d="M366 490l0 -408 -71 0c-4,0 -7,-3 -7,-7l0 -61 -251 0c-5,0 -8,4 -8,8l0 468c0,4 3,8 8,8l321 0c4,0 8,-4 8,-8zm-85 -148l-213 0c-9,0 -9,-14 0,-14l213 0c9,0 9,14 0,14zm46 -28l-259 0c-9,0 -9,-14 0,-14l259 0c9,0 9,14 0,14zm-46 -42l-213 0c-9,0 -9,-14 0,-14l213 0c9,0 9,14 0,14zm46 -27l-259 0c-9,0 -9,-14 0,-14l259 0c9,0 9,14 0,14zm-46 -42l-213 0c-9,0 -9,-14 0,-14l213 0c9,0 9,14 0,14zm46 -27l-259 0c-9,0 -9,-14 0,-14l259 0c9,0 9,14 0,14zm-46 -42l-213 0c-9,0 -9,-14 0,-14l213 0c9,0 9,14 0,14zm46 -28l-259 0c-9,0 -9,-14 0,-14l259 0c9,0 9,14 0,14zm-140 314c0,38 -31,69 -69,69 -38,0 -69,-31 -69,-69 0,-38 31,-69 69,-69 38,0 69,31 69,69z"/>
  <path class="fil2" d="M173 420c0,-30 -25,-55 -55,-55 -30,0 -55,25 -55,55 0,30 25,55 55,55 30,0 55,-25 55,-55zm-55 -7c27,0 31,37 7,45 0,4 1,12 -7,12 -8,0 -7,-8 -7,-12 -17,-5 -21,-29 -9,-29 4,0 7,3 7,7 0,5 4,9 9,9 12,0 12,-18 0,-18 -26,0 -32,-38 -7,-46 0,-4 -1,-12 7,-12 8,0 7,8 7,12 17,5 21,29 9,29 -4,0 -7,-3 -7,-7 0,-12 -18,-12 -18,0 0,5 4,10 9,10z"/>
  <polygon class="fil3" points="302,68 354,68 302,22 "/>
  <path class="fil4" d="M422 51l0 383 61 0 0 -383 -61 0zm38 84l0 215c0,4 -3,7 -7,7 -4,0 -7,-3 -7,-7l0 -215c0,-9 14,-9 14,0z"/>
  <path class="fil2" d="M422 37l61 0c0,-27 1,-23 -49,-23 -6,0 -12,5 -12,11l0 12z"/>
  <polygon class="fil2" points="478,448 427,448 453,491 "/>
 </g>
</svg>
