<?xml version="1.0" encoding="UTF-8"?>
<!DOCTYPE svg PUBLIC "-//W3C//DTD SVG 1.1//EN" "http://www.w3.org/Graphics/SVG/1.1/DTD/svg11.dtd">
<!-- Creator: CorelDRAW -->
<svg xmlns="http://www.w3.org/2000/svg" xml:space="preserve" width="6.72in" height="6.72in" style="shape-rendering:geometricPrecision; text-rendering:geometricPrecision; image-rendering:optimizeQuality; fill-rule:evenodd; clip-rule:evenodd"
viewBox="0 0 6.72 6.72"
 xmlns:xlink="http://www.w3.org/1999/xlink">
 <defs>
  <style type="text/css">
   <![CDATA[
    .fil8 {fill:none}
    .fil1 {fill:url(#id0);fill-rule:nonzero}
    .fil2 {fill:url(#id1);fill-rule:nonzero}
    .fil3 {fill:url(#id2);fill-rule:nonzero}
    .fil4 {fill:url(#id3);fill-rule:nonzero}
    .fil6 {fill:url(#id4);fill-rule:nonzero}
    .fil5 {fill:url(#id5);fill-rule:nonzero}
    .fil7 {fill:url(#id6);fill-rule:nonzero}
    .fil0 {fill:url(#id7);fill-rule:nonzero}
   ]]>
  </style>
  <linearGradient id="id0" gradientUnits="userSpaceOnUse" x1="1.76136" y1="1.62146" x2="4.95865" y2="1.62146">
   <stop offset="0" style="stop-color:#321B71"/>
   <stop offset="1" style="stop-color:#3093B0"/>
  </linearGradient>
  <linearGradient id="id1" gradientUnits="userSpaceOnUse" xlink:href="#id0" x1="1.76136" y1="2.11818" x2="4.18251" y2="2.11818">
  </linearGradient>
  <linearGradient id="id2" gradientUnits="userSpaceOnUse" xlink:href="#id0" x1="1.76136" y1="2.61491" x2="3.92056" y2="2.61491">
  </linearGradient>
  <linearGradient id="id3" gradientUnits="userSpaceOnUse" xlink:href="#id0" x1="1.76136" y1="3.11163" x2="3.77504" y2="3.11163">
  </linearGradient>
  <linearGradient id="id4" gradientUnits="userSpaceOnUse" xlink:href="#id0" x1="1.76136" y1="4.10508" x2="3.6004" y2="4.10508">
  </linearGradient>
  <linearGradient id="id5" gradientUnits="userSpaceOnUse" xlink:href="#id0" x1="1.76135" y1="3.60836" x2="3.32876" y2="3.60836">
  </linearGradient>
  <linearGradient id="id6" gradientUnits="userSpaceOnUse" xlink:href="#id0" x1="3.99688" y1="4.06315" x2="5.21115" y2="4.06315">
  </linearGradient>
  <linearGradient id="id7" gradientUnits="userSpaceOnUse" xlink:href="#id0" x1="1.07813" y1="3.36" x2="5.64187" y2="3.36">
  </linearGradient>
 </defs>
 <g id="Layer_x0020_1">
  <metadata id="CorelCorpID_0Corel-Layer"/>
  <path class="fil0" d="M1.15813 0.8l4.40374 0 0.08 0 0 0.08 0 4.53855c0,0.137984 -0.0563898,0.263366 -0.147236,0.354213 -0.0908465,0.0908465 -0.216228,0.147236 -0.354213,0.147236l-3.56084 0c-0.137984,0 -0.263366,-0.0563898 -0.354213,-0.147236 -0.0908465,-0.0908465 -0.147236,-0.216228 -0.147236,-0.354213l0 -4.53855 0 -0.08 0.08 0zm4.32374 0.16l-4.24374 0 0 4.45855c0,0.093815 0.0384409,0.179165 0.100362,0.241087 0.0619213,0.0619213 0.147272,0.100362 0.241087,0.100362l3.56084 0c0.093815,0 0.179165,-0.0384409 0.241087,-0.100362 0.0619213,-0.0619213 0.100362,-0.147272 0.100362,-0.241087l0 -4.45855z"/>
  <polygon class="fil1" points="4.87865,1.70146 4.95865,1.70146 4.95865,1.54146 4.87865,1.54146 1.84136,1.54146 1.76136,1.54146 1.76136,1.70146 1.84136,1.70146 "/>
  <polygon class="fil2" points="4.10251,2.19818 4.18251,2.19818 4.18251,2.03818 4.10251,2.03818 1.84136,2.03818 1.76136,2.03818 1.76136,2.19818 1.84136,2.19818 "/>
  <polygon class="fil3" points="3.84056,2.69491 3.92056,2.69491 3.92056,2.53491 3.84056,2.53491 1.84136,2.53491 1.76136,2.53491 1.76136,2.69491 1.84136,2.69491 "/>
  <polygon class="fil4" points="3.69504,3.19163 3.77504,3.19163 3.77504,3.03163 3.69504,3.03163 1.84136,3.03163 1.76136,3.03163 1.76136,3.19163 1.84136,3.19163 "/>
  <polygon class="fil5" points="3.24876,3.68836 3.32876,3.68836 3.32876,3.52836 3.24876,3.52836 1.84135,3.52836 1.76135,3.52836 1.76135,3.68836 1.84135,3.68836 "/>
  <polygon class="fil6" points="3.5204,4.18508 3.6004,4.18508 3.6004,4.02508 3.5204,4.02508 1.84136,4.02508 1.76136,4.02508 1.76136,4.18508 1.84136,4.18508 "/>
  <polygon class="fil6" points="3.5204,4.68181 3.6004,4.68181 3.6004,4.52181 3.5204,4.52181 1.84136,4.52181 1.76136,4.52181 1.76136,4.68181 1.84136,4.68181 "/>
  <polygon class="fil6" points="3.5204,5.17853 3.6004,5.17853 3.6004,5.01853 3.5204,5.01853 1.84136,5.01853 1.76136,5.01853 1.76136,5.17853 1.84136,5.17853 "/>
  <path class="fil7" d="M4.54377 5.19709l0 -0.225165c-0.112795,-0.0141024 -0.204228,-0.039311 -0.274724,-0.075626 -0.0705,-0.0363189 -0.131598,-0.0952795 -0.182866,-0.176031 -0.0512717,-0.0811772 -0.0811811,-0.179874 -0.0892992,-0.296516l0.226449 -0.0427283c0.0175157,0.120917 0.0482795,0.209787 0.0927126,0.26661 0.0632362,0.0803268 0.139287,0.12476 0.227728,0.133732l0 -0.716941c-0.0927126,-0.0175157 -0.187138,-0.0534055 -0.284126,-0.107669 -0.0717795,-0.0401614 -0.126894,-0.0957047 -0.165776,-0.16663 -0.0388819,-0.0709252 -0.0581063,-0.151248 -0.0581063,-0.241402 0,-0.16022 0.0568228,-0.290106 0.170047,-0.389232 0.0760512,-0.0670787 0.18885,-0.107669 0.337961,-0.122622l0 -0.107669 0.132878 0 0 0.107669c0.13074,0.0123898 0.234992,0.0508425 0.311472,0.114933 0.0986969,0.0816063 0.157657,0.193976 0.17774,0.336677l-0.232858 0.0350354c-0.0132441,-0.0884409 -0.0410157,-0.156374 -0.083315,-0.203374 -0.0418701,-0.0469961 -0.0995512,-0.078189 -0.173039,-0.0931417l0 0.649433c0.113224,0.028626 0.188421,0.0508425 0.225165,0.0666535 0.0700709,0.0307598 0.127323,0.0683583 0.171331,0.112366 0.044437,0.044437 0.0786181,0.0969882 0.102114,0.157661 0.0239291,0.0610984 0.0358898,0.126894 0.0358898,0.197819 0,0.156378 -0.0499882,0.286264 -0.14911,0.390516 -0.099126,0.104677 -0.227732,0.16022 -0.38539,0.167913l0 0.227728 -0.132878 0zm0 -1.97265c-0.0875866,0.0132441 -0.156803,0.0482795 -0.20722,0.105106 -0.0504134,0.0568228 -0.075622,0.123906 -0.075622,0.201665 0,0.0764803 0.0213622,0.140996 0.0645157,0.192693 0.0431535,0.0516969 0.115787,0.0931417 0.218327,0.123906l0 -0.62337zm0.132878 1.55693c0.0875906,-0.0106811 0.159795,-0.0487087 0.217047,-0.11365 0.057252,-0.0649449 0.085878,-0.145697 0.085878,-0.241831 0,-0.0816063 -0.0205079,-0.147402 -0.0606693,-0.196965 -0.0405906,-0.049563 -0.121343,-0.0939961 -0.242256,-0.133303l0 0.685748z"/>
 </g>
 <rect class="fil8" width="6.72" height="6.72"/>
</svg>
