<?xml version="1.0" encoding="UTF-8"?>
<!DOCTYPE svg PUBLIC "-//W3C//DTD SVG 1.1//EN" "http://www.w3.org/Graphics/SVG/1.1/DTD/svg11.dtd">
<!-- Creator: CorelDRAW -->
<svg xmlns="http://www.w3.org/2000/svg" xml:space="preserve" width="512px" height="512px" version="1.1" style="shape-rendering:geometricPrecision; text-rendering:geometricPrecision; image-rendering:optimizeQuality; fill-rule:evenodd; clip-rule:evenodd"
viewBox="0 0 512 512"
 xmlns:xlink="http://www.w3.org/1999/xlink">
 <defs>
  <style type="text/css">
   <![CDATA[
    .fil0 {fill:#0B3E3E}
   ]]>
  </style>
 </defs>
 <g id="Layer_x0020_1">
  <metadata id="CorelCorpID_0Corel-Layer"/>
  <path class="fil0" d="M126 438c-21,0 -37,-16 -37,-37 0,-17 13,-32 30,-36l0 -102 -46 0c-3,17 -18,30 -36,30 -20,0 -37,-17 -37,-37 0,-20 17,-37 37,-37 18,0 33,13 36,30l46 0 0 -102c-17,-4 -30,-19 -30,-36 0,-21 16,-37 37,-37 20,0 36,16 36,37 0,17 -12,32 -29,36l0 102 46 0c3,-48 42,-86 89,-89l0 -68c-17,-3 -30,-18 -30,-36 0,-20 17,-37 37,-37 20,0 37,17 37,37 0,18 -13,33 -30,36l0 68c21,1 41,10 56,23l48 -48c-16,-24 1,-57 31,-57 32,0 49,39 26,63 -13,12 -33,14 -47,4l-48 48c13,15 22,35 23,56l68 0c3,-17 18,-30 36,-30 20,0 37,17 37,37 0,20 -17,37 -37,37 -18,0 -33,-13 -36,-30l-68 0c-1,21 -10,41 -23,56l48 48c24,-17 57,1 57,30 0,33 -39,50 -62,26 -13,-12 -15,-32 -5,-46l-48 -48c-15,13 -35,22 -56,23l0 68c17,3 30,18 30,36 0,20 -17,37 -37,37 -20,0 -37,-17 -37,-37 0,-18 13,-33 30,-36l0 -68c-47,-3 -86,-41 -89,-89l-46 0 0 102c17,4 29,19 29,36 0,21 -16,37 -36,37zm66 -182c1,47 37,83 83,83 46,0 83,-37 83,-83 0,-46 -37,-83 -83,-83 -45,0 -83,37 -83,83zm83 58c-8,0 -7,-9 -7,-15 -7,0 -18,2 -18,-6 0,-4 3,-7 7,-7l30 0 0 -23 -30 0c-4,0 -7,-3 -7,-7l0 -37c0,-8 11,-6 18,-6 0,-6 -1,-15 7,-15 8,0 7,9 7,15 8,0 18,-2 18,6 0,4 -3,7 -7,7l-29 0 0 23 29 0c4,0 7,3 7,7l0 37c0,8 -10,6 -18,6 0,6 1,15 -7,15zm0 -281c-13,0 -23,10 -23,23 0,13 10,23 23,23 13,0 23,-10 23,-23 0,-13 -10,-23 -23,-23zm142 58c-21,0 -31,25 -17,40 9,9 24,9 33,0 15,-15 4,-40 -16,-40zm58 142c-13,0 -23,10 -23,23 0,13 10,23 23,23 13,0 23,-10 23,-23 0,-13 -10,-23 -23,-23zm-58 141c-21,0 -31,25 -17,40 15,14 40,4 40,-17 0,-12 -11,-23 -23,-23zm-142 59c-13,0 -23,10 -23,23 0,13 10,23 23,23 13,0 23,-10 23,-23 0,-13 -10,-23 -23,-23zm-238 -200c-13,0 -23,10 -23,23 0,13 10,23 23,23 13,0 23,-10 23,-23 0,-13 -10,-23 -23,-23zm89 -146c-13,0 -23,11 -23,24 0,12 10,23 23,23 12,0 23,-11 23,-23 0,-13 -11,-24 -23,-24zm0 291c-13,0 -23,11 -23,23 0,13 10,24 23,24 12,0 23,-11 23,-24 0,-12 -11,-23 -23,-23z"/>
 </g>
</svg>
